<?xml version="1.0" standalone="no"?><svg xmlns="http://www.w3.org/2000/svg" viewBox="0 0 1440 320"><path fill="#0099ff" fill-opacity="1.2" d="M0,256L40,266.7C80,277,160,299,240,293.3C320,288,400,256,480,234.7C560,213,640,203,720,208C800,213,880,235,960,234.7C1040,235,1120,213,1200,213.3C1280,213,1360,235,1400,245.3L1440,256L1440,320L1400,320C1360,320,1280,320,1200,320C1120,320,1040,320,960,320C880,320,800,320,720,320C640,320,560,320,480,320C400,320,320,320,240,320C160,320,80,320,40,320L0,320Z"></path></svg>